  0
SECTION
  2
HEADER
  9
$ACADVER
  1
AC1014
  9
$HANDSEED
  5
FFFF
  9
$MEASUREMENT
 70
     1
  0
ENDSEC
  0
SECTION
  2
TABLES
  0
TABLE
  2
VPORT
  5
8
330
0
100
AcDbSymbolTable
 70
     4
  0
VPORT
  5
2E
330
8
100
AcDbSymbolTableRecord
100
AcDbViewportTableRecord
  2
*ACTIVE
 70
     0
 10
0.0
 20
0.0
 11
1.0
 21
1.0
 12
210.0
 22
148.5
 13
0.0
 23
0.0
 14
10.0
 24
10.0
 15
10.0
 25
10.0
 16
0.0
 26
0.0
 36
1.0
 17
0.0
 27
0.0
 37
0.0
 40
341.0
 41
1.24
 42
50.0
 43
0.0
 44
0.0
 50
0.0
 51
0.0
 71
     0
 72
   100
 73
     1
 74
     3
 75
     0
 76
     0
 77
     0
 78
     0
  0
ENDTAB
  0
TABLE
  2
LTYPE
  5
5
330
0
100
AcDbSymbolTable
 70
     1
  0
LTYPE
  5
14
330
5
100
AcDbSymbolTableRecord
100
AcDbLinetypeTableRecord
  2
BYBLOCK
 70
     0
  3

 72
    65
 73
     0
 40
0.0
  0
LTYPE
  5
15
330
5
100
AcDbSymbolTableRecord
100
AcDbLinetypeTableRecord
  2
BYLAYER
 70
     0
  3

 72
    65
 73
     0
 40
0.0
  0
LTYPE
  5
16
330
5
100
AcDbSymbolTableRecord
100
AcDbLinetypeTableRecord
  2
CONTINUOUS
 70
     0
  3
Solid line
 72
    65
 73
     0
 40
0.0
  0
ENDTAB
  0
TABLE
  2
LAYER
  5
2
100
AcDbSymbolTable
 70
4
  0
LAYER
  5
50
100
AcDbSymbolTableRecord
100
AcDbLayerTableRecord
  2
0
 70
0
  6
CONTINUOUS
  0
LAYER
  5
51
100
AcDbSymbolTableRecord
100
AcDbLayerTableRecord
  2
image
 70
0
  6
CONTINUOUS
  0
LAYER
  5
52
100
AcDbSymbolTableRecord
100
AcDbLayerTableRecord
  2
Layer_1
 70
0
  6
CONTINUOUS
  0
LAYER
  5
53
100
AcDbSymbolTableRecord
100
AcDbLayerTableRecord
  2
points
 70
0
  6
CONTINUOUS
  0
ENDTAB
  0
TABLE
  2
STYLE
  5
3
330
0
100
AcDbSymbolTable
 70
     1
  0
STYLE
  5
11
330
3
100
AcDbSymbolTableRecord
100
AcDbTextStyleTableRecord
  2
STANDARD
 70
     0
 40
0.0
 41
1.0
 50
0.0
 71
     0
 42
2.5
  3
txt
  4

  0
ENDTAB
  0
TABLE
  2
VIEW
  5
6
330
0
100
AcDbSymbolTable
 70
     0
  0
ENDTAB
  0
TABLE
  2
UCS
  5
7
330
0
100
AcDbSymbolTable
 70
     0
  0
ENDTAB
  0
TABLE
  2
APPID
  5
9
330
0
100
AcDbSymbolTable
 70
     2
  0
APPID
  5
12
330
9
100
AcDbSymbolTableRecord
100
AcDbRegAppTableRecord
  2
ACAD
 70
     0
  0
ENDTAB
  0
TABLE
  2
DIMSTYLE
  5
A
330
0
100
AcDbSymbolTable
 70
     1
  0
DIMSTYLE
105
27
330
A
100
AcDbSymbolTableRecord
100
AcDbDimStyleTableRecord
  2
ISO-25
 70
     0
  3

  4

  5

  6

  7

 40
1.0
 41
2.5
 42
0.625
 43
3.75
 44
1.25
 45
0.0
 46
0.0
 47
0.0
 48
0.0
140
2.5
141
2.5
142
0.0
143
0.03937007874016
144
1.0
145
0.0
146
1.0
147
0.625
 71
     0
 72
     0
 73
     0
 74
     0
 75
     0
 76
     0
 77
     1
 78
     8
170
     0
171
     3
172
     1
173
     0
174
     0
175
     0
176
     0
177
     0
178
     0
270
     2
271
     2
272
     2
273
     2
274
     3
340
11
275
     0
280
     0
281
     0
282
     0
283
     0
284
     8
285
     0
286
     0
287
     3
288
     0
  0
ENDTAB
  0
TABLE
  2
BLOCK_RECORD
  5
1
330
0
100
AcDbSymbolTable
 70
     1
  0
BLOCK_RECORD
  5
1F
330
1
100
AcDbSymbolTableRecord
100
AcDbBlockTableRecord
  2
*MODEL_SPACE
  0
BLOCK_RECORD
  5
1B
330
1
100
AcDbSymbolTableRecord
100
AcDbBlockTableRecord
  2
*PAPER_SPACE
  0
ENDTAB
  0
ENDSEC
  0
SECTION
  2
BLOCKS
  0
BLOCK
  5
20
330
1F
100
AcDbEntity
  8
0
100
AcDbBlockBegin
  2
*MODEL_SPACE
 70
     0
 10
0.0
 20
0.0
 30
0.0
  3
*MODEL_SPACE
  1

  0
ENDBLK
  5
21
330
1F
100
AcDbEntity
  8
0
100
AcDbBlockEnd
  0
BLOCK
  5
1C
330
1B
100
AcDbEntity
 67
     1
  8
0
100
AcDbBlockBegin
  2
*PAPER_SPACE
  1

  0
ENDBLK
  5
1D
330
1B
100
AcDbEntity
 67
     1
  8
0
100
AcDbBlockEnd
  0
ENDSEC
  0
SECTION
  2
ENTITIES
  0
LWPOLYLINE
  5
100
100
AcDbEntity
  8
points
 62
7
100
AcDbPolyline
 90
4
 70
1
 10
995.500000
 20
1325.812500
 30
0.0
 10
1000.500000
 20
1335.812500
 30
0.0
 10
1005.500000
 20
1325.812500
 30
0.0
 10
995.500000
 20
1325.812500
 30
0.0
  0
LWPOLYLINE
  5
101
100
AcDbEntity
  8
points
 62
7
100
AcDbPolyline
 90
4
 70
1
 10
1260.500000
 20
1130.812500
 30
0.0
 10
1265.500000
 20
1140.812500
 30
0.0
 10
1270.500000
 20
1130.812500
 30
0.0
 10
1260.500000
 20
1130.812500
 30
0.0
  0
LWPOLYLINE
  5
102
100
AcDbEntity
  8
points
 62
7
100
AcDbPolyline
 90
4
 70
1
 10
1115.500000
 20
1280.812500
 30
0.0
 10
1120.500000
 20
1290.812500
 30
0.0
 10
1125.500000
 20
1280.812500
 30
0.0
 10
1115.500000
 20
1280.812500
 30
0.0
  0
LWPOLYLINE
  5
103
100
AcDbEntity
  8
points
 62
7
100
AcDbPolyline
 90
4
 70
1
 10
1075.500000
 20
1355.812500
 30
0.0
 10
1080.500000
 20
1365.812500
 30
0.0
 10
1085.500000
 20
1355.812500
 30
0.0
 10
1075.500000
 20
1355.812500
 30
0.0
  0
LWPOLYLINE
  5
104
100
AcDbEntity
  8
points
 62
7
100
AcDbPolyline
 90
4
 70
1
 10
1160.500000
 20
1380.812500
 30
0.0
 10
1165.500000
 20
1390.812500
 30
0.0
 10
1170.500000
 20
1380.812500
 30
0.0
 10
1160.500000
 20
1380.812500
 30
0.0
  0
LWPOLYLINE
  5
105
100
AcDbEntity
  8
points
 62
7
100
AcDbPolyline
 90
4
 70
1
 10
1210.500000
 20
1345.812500
 30
0.0
 10
1215.500000
 20
1355.812500
 30
0.0
 10
1220.500000
 20
1345.812500
 30
0.0
 10
1210.500000
 20
1345.812500
 30
0.0
  0
LWPOLYLINE
  5
106
100
AcDbEntity
  8
points
 62
7
100
AcDbPolyline
 90
4
 70
1
 10
1165.500000
 20
1335.812500
 30
0.0
 10
1170.500000
 20
1345.812500
 30
0.0
 10
1175.500000
 20
1335.812500
 30
0.0
 10
1165.500000
 20
1335.812500
 30
0.0
  0
LWPOLYLINE
  5
107
100
AcDbEntity
  8
points
 62
7
100
AcDbPolyline
 90
4
 70
1
 10
1165.500000
 20
1170.812500
 30
0.0
 10
1170.500000
 20
1180.812500
 30
0.0
 10
1175.500000
 20
1170.812500
 30
0.0
 10
1165.500000
 20
1170.812500
 30
0.0
  0
LWPOLYLINE
  5
108
100
AcDbEntity
  8
points
 62
7
100
AcDbPolyline
 90
4
 70
1
 10
1180.500000
 20
1110.812500
 30
0.0
 10
1185.500000
 20
1120.812500
 30
0.0
 10
1190.500000
 20
1110.812500
 30
0.0
 10
1180.500000
 20
1110.812500
 30
0.0
  0
LWPOLYLINE
  5
109
100
AcDbEntity
  8
points
 62
7
100
AcDbPolyline
 90
4
 70
1
 10
1025.500000
 20
975.812500
 30
0.0
 10
1030.500000
 20
985.812500
 30
0.0
 10
1035.500000
 20
975.812500
 30
0.0
 10
1025.500000
 20
975.812500
 30
0.0
  0
LWPOLYLINE
  5
10a
100
AcDbEntity
  8
points
 62
7
100
AcDbPolyline
 90
4
 70
1
 10
775.500000
 20
980.812500
 30
0.0
 10
780.500000
 20
990.812500
 30
0.0
 10
785.500000
 20
980.812500
 30
0.0
 10
775.500000
 20
980.812500
 30
0.0
  0
LWPOLYLINE
  5
10b
100
AcDbEntity
  8
points
 62
7
100
AcDbPolyline
 90
4
 70
1
 10
695.500000
 20
1015.812500
 30
0.0
 10
700.500000
 20
1025.812500
 30
0.0
 10
705.500000
 20
1015.812500
 30
0.0
 10
695.500000
 20
1015.812500
 30
0.0
  0
LWPOLYLINE
  5
10c
100
AcDbEntity
  8
points
 62
7
100
AcDbPolyline
 90
4
 70
1
 10
780.500000
 20
1345.812500
 30
0.0
 10
785.500000
 20
1355.812500
 30
0.0
 10
790.500000
 20
1345.812500
 30
0.0
 10
780.500000
 20
1345.812500
 30
0.0
  0
LWPOLYLINE
  5
10d
100
AcDbEntity
  8
points
 62
7
100
AcDbPolyline
 90
4
 70
1
 10
1150.500000
 20
1305.812500
 30
0.0
 10
1155.500000
 20
1315.812500
 30
0.0
 10
1160.500000
 20
1305.812500
 30
0.0
 10
1150.500000
 20
1305.812500
 30
0.0
  0
LWPOLYLINE
  5
10e
100
AcDbEntity
  8
points
 62
7
100
AcDbPolyline
 90
4
 70
1
 10
755.500000
 20
725.812500
 30
0.0
 10
760.500000
 20
735.812500
 30
0.0
 10
765.500000
 20
725.812500
 30
0.0
 10
755.500000
 20
725.812500
 30
0.0
  0
LWPOLYLINE
  5
10f
100
AcDbEntity
  8
points
 62
7
100
AcDbPolyline
 90
4
 70
1
 10
1005.500000
 20
875.812500
 30
0.0
 10
1010.500000
 20
885.812500
 30
0.0
 10
1015.500000
 20
875.812500
 30
0.0
 10
1005.500000
 20
875.812500
 30
0.0
  0
LWPOLYLINE
  5
110
100
AcDbEntity
  8
points
 62
7
100
AcDbPolyline
 90
4
 70
1
 10
545.500000
 20
805.812500
 30
0.0
 10
550.500000
 20
815.812500
 30
0.0
 10
555.500000
 20
805.812500
 30
0.0
 10
545.500000
 20
805.812500
 30
0.0
  0
LWPOLYLINE
  5
111
100
AcDbEntity
  8
points
 62
7
100
AcDbPolyline
 90
4
 70
1
 10
385.500000
 20
855.812500
 30
0.0
 10
390.500000
 20
865.812500
 30
0.0
 10
395.500000
 20
855.812500
 30
0.0
 10
385.500000
 20
855.812500
 30
0.0
  0
LWPOLYLINE
  5
112
100
AcDbEntity
  8
points
 62
7
100
AcDbPolyline
 90
4
 70
1
 10
345.500000
 20
785.812500
 30
0.0
 10
350.500000
 20
795.812500
 30
0.0
 10
355.500000
 20
785.812500
 30
0.0
 10
345.500000
 20
785.812500
 30
0.0
  0
LWPOLYLINE
  5
113
100
AcDbEntity
  8
points
 62
7
100
AcDbPolyline
 90
4
 70
1
 10
285.500000
 20
785.812500
 30
0.0
 10
290.500000
 20
795.812500
 30
0.0
 10
295.500000
 20
785.812500
 30
0.0
 10
285.500000
 20
785.812500
 30
0.0
  0
LWPOLYLINE
  5
114
100
AcDbEntity
  8
points
 62
7
100
AcDbPolyline
 90
4
 70
1
 10
325.500000
 20
865.812500
 30
0.0
 10
330.500000
 20
875.812500
 30
0.0
 10
335.500000
 20
865.812500
 30
0.0
 10
325.500000
 20
865.812500
 30
0.0
  0
LWPOLYLINE
  5
115
100
AcDbEntity
  8
points
 62
7
100
AcDbPolyline
 90
4
 70
1
 10
365.500000
 20
875.812500
 30
0.0
 10
370.500000
 20
885.812500
 30
0.0
 10
375.500000
 20
875.812500
 30
0.0
 10
365.500000
 20
875.812500
 30
0.0
  0
LWPOLYLINE
  5
116
100
AcDbEntity
  8
points
 62
7
100
AcDbPolyline
 90
4
 70
1
 10
35.500000
 20
405.812500
 30
0.0
 10
40.500000
 20
415.812500
 30
0.0
 10
45.500000
 20
405.812500
 30
0.0
 10
35.500000
 20
405.812500
 30
0.0
  0
LWPOLYLINE
  5
117
100
AcDbEntity
  8
points
 62
7
100
AcDbPolyline
 90
4
 70
1
 10
85.500000
 20
405.812500
 30
0.0
 10
90.500000
 20
415.812500
 30
0.0
 10
95.500000
 20
405.812500
 30
0.0
 10
85.500000
 20
405.812500
 30
0.0
  0
LWPOLYLINE
  5
118
100
AcDbEntity
  8
points
 62
7
100
AcDbPolyline
 90
4
 70
1
 10
95.500000
 20
365.812500
 30
0.0
 10
100.500000
 20
375.812500
 30
0.0
 10
105.500000
 20
365.812500
 30
0.0
 10
95.500000
 20
365.812500
 30
0.0
  0
LWPOLYLINE
  5
119
100
AcDbEntity
  8
points
 62
7
100
AcDbPolyline
 90
4
 70
1
 10
85.500000
 20
305.812500
 30
0.0
 10
90.500000
 20
315.812500
 30
0.0
 10
95.500000
 20
305.812500
 30
0.0
 10
85.500000
 20
305.812500
 30
0.0
  0
LWPOLYLINE
  5
11a
100
AcDbEntity
  8
points
 62
7
100
AcDbPolyline
 90
4
 70
1
 10
125.500000
 20
285.812500
 30
0.0
 10
130.500000
 20
295.812500
 30
0.0
 10
135.500000
 20
285.812500
 30
0.0
 10
125.500000
 20
285.812500
 30
0.0
  0
LWPOLYLINE
  5
11b
100
AcDbEntity
  8
points
 62
7
100
AcDbPolyline
 90
4
 70
1
 10
145.500000
 20
405.812500
 30
0.0
 10
150.500000
 20
415.812500
 30
0.0
 10
155.500000
 20
405.812500
 30
0.0
 10
145.500000
 20
405.812500
 30
0.0
  0
LWPOLYLINE
  5
11c
100
AcDbEntity
  8
points
 62
7
100
AcDbPolyline
 90
4
 70
1
 10
125.500000
 20
575.812500
 30
0.0
 10
130.500000
 20
585.812500
 30
0.0
 10
135.500000
 20
575.812500
 30
0.0
 10
125.500000
 20
575.812500
 30
0.0
  0
LWPOLYLINE
  5
11d
100
AcDbEntity
  8
points
 62
7
100
AcDbPolyline
 90
4
 70
1
 10
175.500000
 20
415.812500
 30
0.0
 10
180.500000
 20
425.812500
 30
0.0
 10
185.500000
 20
415.812500
 30
0.0
 10
175.500000
 20
415.812500
 30
0.0
  0
LWPOLYLINE
  5
11e
100
AcDbEntity
  8
points
 62
7
100
AcDbPolyline
 90
4
 70
1
 10
635.500000
 20
695.812500
 30
0.0
 10
640.500000
 20
705.812500
 30
0.0
 10
645.500000
 20
695.812500
 30
0.0
 10
635.500000
 20
695.812500
 30
0.0
  0
LWPOLYLINE
  5
11f
100
AcDbEntity
  8
points
 62
7
100
AcDbPolyline
 90
4
 70
1
 10
415.500000
 20
145.812500
 30
0.0
 10
420.500000
 20
155.812500
 30
0.0
 10
425.500000
 20
145.812500
 30
0.0
 10
415.500000
 20
145.812500
 30
0.0
  0
LWPOLYLINE
  5
120
100
AcDbEntity
  8
points
 62
7
100
AcDbPolyline
 90
4
 70
1
 10
605.500000
 20
175.812500
 30
0.0
 10
610.500000
 20
185.812500
 30
0.0
 10
615.500000
 20
175.812500
 30
0.0
 10
605.500000
 20
175.812500
 30
0.0
  0
LWPOLYLINE
  5
121
100
AcDbEntity
  8
points
 62
7
100
AcDbPolyline
 90
4
 70
1
 10
1555.500000
 20
695.812500
 30
0.0
 10
1560.500000
 20
705.812500
 30
0.0
 10
1565.500000
 20
695.812500
 30
0.0
 10
1555.500000
 20
695.812500
 30
0.0
  0
LWPOLYLINE
  5
122
100
AcDbEntity
  8
points
 62
7
100
AcDbPolyline
 90
4
 70
1
 10
1545.500000
 20
785.812500
 30
0.0
 10
1550.500000
 20
795.812500
 30
0.0
 10
1555.500000
 20
785.812500
 30
0.0
 10
1545.500000
 20
785.812500
 30
0.0
  0
LWPOLYLINE
  5
123
100
AcDbEntity
  8
points
 62
7
100
AcDbPolyline
 90
4
 70
1
 10
1505.500000
 20
725.812500
 30
0.0
 10
1510.500000
 20
735.812500
 30
0.0
 10
1515.500000
 20
725.812500
 30
0.0
 10
1505.500000
 20
725.812500
 30
0.0
  0
LWPOLYLINE
  5
124
100
AcDbEntity
  8
points
 62
7
100
AcDbPolyline
 90
4
 70
1
 10
1485.500000
 20
815.812500
 30
0.0
 10
1490.500000
 20
825.812500
 30
0.0
 10
1495.500000
 20
815.812500
 30
0.0
 10
1485.500000
 20
815.812500
 30
0.0
  0
LWPOLYLINE
  5
125
100
AcDbEntity
  8
points
 62
7
100
AcDbPolyline
 90
4
 70
1
 10
1265.500000
 20
825.812500
 30
0.0
 10
1270.500000
 20
835.812500
 30
0.0
 10
1275.500000
 20
825.812500
 30
0.0
 10
1265.500000
 20
825.812500
 30
0.0
  0
LWPOLYLINE
  5
126
100
AcDbEntity
  8
points
 62
7
100
AcDbPolyline
 90
4
 70
1
 10
1245.500000
 20
885.812500
 30
0.0
 10
1250.500000
 20
895.812500
 30
0.0
 10
1255.500000
 20
885.812500
 30
0.0
 10
1245.500000
 20
885.812500
 30
0.0
  0
LWPOLYLINE
  5
127
100
AcDbEntity
  8
points
 62
7
100
AcDbPolyline
 90
4
 70
1
 10
1195.500000
 20
855.812500
 30
0.0
 10
1200.500000
 20
865.812500
 30
0.0
 10
1205.500000
 20
855.812500
 30
0.0
 10
1195.500000
 20
855.812500
 30
0.0
  0
LWPOLYLINE
  5
128
100
AcDbEntity
  8
points
 62
7
100
AcDbPolyline
 90
4
 70
1
 10
1135.500000
 20
895.812500
 30
0.0
 10
1140.500000
 20
905.812500
 30
0.0
 10
1145.500000
 20
895.812500
 30
0.0
 10
1135.500000
 20
895.812500
 30
0.0
  0
LWPOLYLINE
  5
129
100
AcDbEntity
  8
points
 62
7
100
AcDbPolyline
 90
4
 70
1
 10
1115.500000
 20
865.812500
 30
0.0
 10
1120.500000
 20
875.812500
 30
0.0
 10
1125.500000
 20
865.812500
 30
0.0
 10
1115.500000
 20
865.812500
 30
0.0
  0
LWPOLYLINE
  5
12a
100
AcDbEntity
  8
points
 62
7
100
AcDbPolyline
 90
4
 70
1
 10
1145.500000
 20
785.812500
 30
0.0
 10
1150.500000
 20
795.812500
 30
0.0
 10
1155.500000
 20
785.812500
 30
0.0
 10
1145.500000
 20
785.812500
 30
0.0
  0
LWPOLYLINE
  5
12b
100
AcDbEntity
  8
points
 62
7
100
AcDbPolyline
 90
4
 70
1
 10
1215.500000
 20
785.812500
 30
0.0
 10
1220.500000
 20
795.812500
 30
0.0
 10
1225.500000
 20
785.812500
 30
0.0
 10
1215.500000
 20
785.812500
 30
0.0
  0
LWPOLYLINE
  5
12c
100
AcDbEntity
  8
points
 62
7
100
AcDbPolyline
 90
4
 70
1
 10
1285.500000
 20
765.812500
 30
0.0
 10
1290.500000
 20
775.812500
 30
0.0
 10
1295.500000
 20
765.812500
 30
0.0
 10
1285.500000
 20
765.812500
 30
0.0
  0
LWPOLYLINE
  5
12d
100
AcDbEntity
  8
points
 62
7
100
AcDbPolyline
 90
4
 70
1
 10
1055.500000
 20
715.812500
 30
0.0
 10
1060.500000
 20
725.812500
 30
0.0
 10
1065.500000
 20
715.812500
 30
0.0
 10
1055.500000
 20
715.812500
 30
0.0
  0
LWPOLYLINE
  5
12e
100
AcDbEntity
  8
points
 62
7
100
AcDbPolyline
 90
4
 70
1
 10
975.500000
 20
625.812500
 30
0.0
 10
980.500000
 20
635.812500
 30
0.0
 10
985.500000
 20
625.812500
 30
0.0
 10
975.500000
 20
625.812500
 30
0.0
  0
LWPOLYLINE
  5
12f
100
AcDbEntity
  8
points
 62
7
100
AcDbPolyline
 90
4
 70
1
 10
1555.500000
 20
555.812500
 30
0.0
 10
1560.500000
 20
565.812500
 30
0.0
 10
1565.500000
 20
555.812500
 30
0.0
 10
1555.500000
 20
555.812500
 30
0.0
  0
LWPOLYLINE
  5
130
100
AcDbEntity
  8
points
 62
7
100
AcDbPolyline
 90
4
 70
1
 10
1555.500000
 20
525.812500
 30
0.0
 10
1560.500000
 20
535.812500
 30
0.0
 10
1565.500000
 20
525.812500
 30
0.0
 10
1555.500000
 20
525.812500
 30
0.0
  0
LWPOLYLINE
  5
131
100
AcDbEntity
  8
points
 62
7
100
AcDbPolyline
 90
4
 70
1
 10
1455.500000
 20
355.812500
 30
0.0
 10
1460.500000
 20
365.812500
 30
0.0
 10
1465.500000
 20
355.812500
 30
0.0
 10
1455.500000
 20
355.812500
 30
0.0
  0
LWPOLYLINE
  5
132
100
AcDbEntity
  8
points
 62
7
100
AcDbPolyline
 90
4
 70
1
 10
1225.500000
 20
455.812500
 30
0.0
 10
1230.500000
 20
465.812500
 30
0.0
 10
1235.500000
 20
455.812500
 30
0.0
 10
1225.500000
 20
455.812500
 30
0.0
  0
LWPOLYLINE
  5
133
100
AcDbEntity
  8
points
 62
7
100
AcDbPolyline
 90
4
 70
1
 10
965.500000
 20
475.812500
 30
0.0
 10
970.500000
 20
485.812500
 30
0.0
 10
975.500000
 20
475.812500
 30
0.0
 10
965.500000
 20
475.812500
 30
0.0
  0
LWPOLYLINE
  5
134
100
AcDbEntity
  8
points
 62
7
100
AcDbPolyline
 90
4
 70
1
 10
1555.500000
 20
325.812500
 30
0.0
 10
1560.500000
 20
335.812500
 30
0.0
 10
1565.500000
 20
325.812500
 30
0.0
 10
1555.500000
 20
325.812500
 30
0.0
  0
LWPOLYLINE
  5
135
100
AcDbEntity
  8
points
 62
7
100
AcDbPolyline
 90
4
 70
1
 10
1285.500000
 20
135.812500
 30
0.0
 10
1290.500000
 20
145.812500
 30
0.0
 10
1295.500000
 20
135.812500
 30
0.0
 10
1285.500000
 20
135.812500
 30
0.0
  0
LWPOLYLINE
  5
136
100
AcDbEntity
  8
points
 62
7
100
AcDbPolyline
 90
4
 70
1
 10
1485.500000
 20
205.812500
 30
0.0
 10
1490.500000
 20
215.812500
 30
0.0
 10
1495.500000
 20
205.812500
 30
0.0
 10
1485.500000
 20
205.812500
 30
0.0
  0
LWPOLYLINE
  5
137
100
AcDbEntity
  8
points
 62
7
100
AcDbPolyline
 90
4
 70
1
 10
1325.500000
 20
1025.812500
 30
0.0
 10
1330.500000
 20
1035.812500
 30
0.0
 10
1335.500000
 20
1025.812500
 30
0.0
 10
1325.500000
 20
1025.812500
 30
0.0
  0
LWPOLYLINE
  5
138
100
AcDbEntity
  8
points
 62
7
100
AcDbPolyline
 90
4
 70
1
 10
625.500000
 20
1005.812500
 30
0.0
 10
630.500000
 20
1015.812500
 30
0.0
 10
635.500000
 20
1005.812500
 30
0.0
 10
625.500000
 20
1005.812500
 30
0.0
  0
LWPOLYLINE
  5
139
100
AcDbEntity
  8
points
 62
7
100
AcDbPolyline
 90
4
 70
1
 10
645.500000
 20
1385.812500
 30
0.0
 10
650.500000
 20
1395.812500
 30
0.0
 10
655.500000
 20
1385.812500
 30
0.0
 10
645.500000
 20
1385.812500
 30
0.0
  0
LWPOLYLINE
  5
13a
100
AcDbEntity
  8
points
 62
7
100
AcDbPolyline
 90
4
 70
1
 10
575.500000
 20
465.812500
 30
0.0
 10
580.500000
 20
475.812500
 30
0.0
 10
585.500000
 20
465.812500
 30
0.0
 10
575.500000
 20
465.812500
 30
0.0
  0
LWPOLYLINE
  5
13b
100
AcDbEntity
  8
points
 62
7
100
AcDbPolyline
 90
4
 70
1
 10
1105.500000
 20
165.812500
 30
0.0
 10
1110.500000
 20
175.812500
 30
0.0
 10
1115.500000
 20
165.812500
 30
0.0
 10
1105.500000
 20
165.812500
 30
0.0
  0
LWPOLYLINE
  5
13c
100
AcDbEntity
  8
points
 62
7
100
AcDbPolyline
 90
4
 70
1
 10
995.500000
 20
255.812500
 30
0.0
 10
1000.500000
 20
265.812500
 30
0.0
 10
1005.500000
 20
255.812500
 30
0.0
 10
995.500000
 20
255.812500
 30
0.0
  0
LWPOLYLINE
  5
13d
100
AcDbEntity
  8
points
 62
7
100
AcDbPolyline
 90
4
 70
1
 10
915.500000
 20
175.812500
 30
0.0
 10
920.500000
 20
185.812500
 30
0.0
 10
925.500000
 20
175.812500
 30
0.0
 10
915.500000
 20
175.812500
 30
0.0
  0
LWPOLYLINE
  5
13e
100
AcDbEntity
  8
points
 62
7
100
AcDbPolyline
 90
4
 70
1
 10
1025.500000
 20
145.812500
 30
0.0
 10
1030.500000
 20
155.812500
 30
0.0
 10
1035.500000
 20
145.812500
 30
0.0
 10
1025.500000
 20
145.812500
 30
0.0
  0
LWPOLYLINE
  5
13f
100
AcDbEntity
  8
points
 62
7
100
AcDbPolyline
 90
4
 70
1
 10
815.500000
 20
55.812500
 30
0.0
 10
820.500000
 20
65.812500
 30
0.0
 10
825.500000
 20
55.812500
 30
0.0
 10
815.500000
 20
55.812500
 30
0.0
  0
LWPOLYLINE
  5
140
100
AcDbEntity
  8
points
 62
7
100
AcDbPolyline
 90
4
 70
1
 10
1085.500000
 20
75.812500
 30
0.0
 10
1090.500000
 20
85.812500
 30
0.0
 10
1095.500000
 20
75.812500
 30
0.0
 10
1085.500000
 20
75.812500
 30
0.0
  0
LWPOLYLINE
  5
141
100
AcDbEntity
  8
points
 62
7
100
AcDbPolyline
 90
4
 70
1
 10
815.500000
 20
565.812500
 30
0.0
 10
820.500000
 20
575.812500
 30
0.0
 10
825.500000
 20
565.812500
 30
0.0
 10
815.500000
 20
565.812500
 30
0.0
  0
LWPOLYLINE
  5
142
100
AcDbEntity
  8
points
 62
7
100
AcDbPolyline
 90
4
 70
1
 10
1575.500000
 20
1145.812500
 30
0.0
 10
1580.500000
 20
1155.812500
 30
0.0
 10
1585.500000
 20
1145.812500
 30
0.0
 10
1575.500000
 20
1145.812500
 30
0.0
  0
LWPOLYLINE
  5
143
100
AcDbEntity
  8
points
 62
7
100
AcDbPolyline
 90
4
 70
1
 10
1625.500000
 20
1135.812500
 30
0.0
 10
1630.500000
 20
1145.812500
 30
0.0
 10
1635.500000
 20
1135.812500
 30
0.0
 10
1625.500000
 20
1135.812500
 30
0.0
  0
LWPOLYLINE
  5
144
100
AcDbEntity
  8
points
 62
7
100
AcDbPolyline
 90
4
 70
1
 10
1645.500000
 20
455.812500
 30
0.0
 10
1650.500000
 20
465.812500
 30
0.0
 10
1655.500000
 20
455.812500
 30
0.0
 10
1645.500000
 20
455.812500
 30
0.0
  0
ENDSEC
  0
SECTION
  2
OBJECTS
  0
DICTIONARY
  5
C
330
0
100
AcDbDictionary
  3
ACAD_GROUP
350
D
  3
ACAD_MLINESTYLE
350
17
  0
DICTIONARY
  5
D
330
C
100
AcDbDictionary
  0
DICTIONARY
  5
1A
330
C
100
AcDbDictionary
  0
DICTIONARY
  5
17
330
C
100
AcDbDictionary
  3
STANDARD
350
18
  0
DICTIONARY
  5
19
330
C
100
AcDbDictionary
  0
ENDSEC
  0
EOF
