  0
SECTION
  2
HEADER
  9
$ACADVER
  1
AC1014
  9
$HANDSEED
  5
FFFF
  9
$MEASUREMENT
 70
     1
  0
ENDSEC
  0
SECTION
  2
TABLES
  0
TABLE
  2
VPORT
  5
8
330
0
100
AcDbSymbolTable
 70
     4
  0
VPORT
  5
2E
330
8
100
AcDbSymbolTableRecord
100
AcDbViewportTableRecord
  2
*ACTIVE
 70
     0
 10
0.0
 20
0.0
 11
1.0
 21
1.0
 12
210.0
 22
148.5
 13
0.0
 23
0.0
 14
10.0
 24
10.0
 15
10.0
 25
10.0
 16
0.0
 26
0.0
 36
1.0
 17
0.0
 27
0.0
 37
0.0
 40
341.0
 41
1.24
 42
50.0
 43
0.0
 44
0.0
 50
0.0
 51
0.0
 71
     0
 72
   100
 73
     1
 74
     3
 75
     0
 76
     0
 77
     0
 78
     0
  0
ENDTAB
  0
TABLE
  2
LTYPE
  5
5
330
0
100
AcDbSymbolTable
 70
     1
  0
LTYPE
  5
14
330
5
100
AcDbSymbolTableRecord
100
AcDbLinetypeTableRecord
  2
BYBLOCK
 70
     0
  3

 72
    65
 73
     0
 40
0.0
  0
LTYPE
  5
15
330
5
100
AcDbSymbolTableRecord
100
AcDbLinetypeTableRecord
  2
BYLAYER
 70
     0
  3

 72
    65
 73
     0
 40
0.0
  0
LTYPE
  5
16
330
5
100
AcDbSymbolTableRecord
100
AcDbLinetypeTableRecord
  2
CONTINUOUS
 70
     0
  3
Solid line
 72
    65
 73
     0
 40
0.0
  0
ENDTAB
  0
TABLE
  2
LAYER
  5
2
100
AcDbSymbolTable
 70
5
  0
LAYER
  5
50
100
AcDbSymbolTableRecord
100
AcDbLayerTableRecord
  2
0
 70
0
  6
CONTINUOUS
  0
LAYER
  5
51
100
AcDbSymbolTableRecord
100
AcDbLayerTableRecord
  2
image
 70
0
  6
CONTINUOUS
  0
LAYER
  5
52
100
AcDbSymbolTableRecord
100
AcDbLayerTableRecord
  2
Layer_1
 70
0
  6
CONTINUOUS
  0
LAYER
  5
53
100
AcDbSymbolTableRecord
100
AcDbLayerTableRecord
  2
points
 70
0
  6
CONTINUOUS
  0
LAYER
  5
54
100
AcDbSymbolTableRecord
100
AcDbLayerTableRecord
  2
Points_2
 70
0
  6
CONTINUOUS
  0
ENDTAB
  0
TABLE
  2
STYLE
  5
3
330
0
100
AcDbSymbolTable
 70
     1
  0
STYLE
  5
11
330
3
100
AcDbSymbolTableRecord
100
AcDbTextStyleTableRecord
  2
STANDARD
 70
     0
 40
0.0
 41
1.0
 50
0.0
 71
     0
 42
2.5
  3
txt
  4

  0
ENDTAB
  0
TABLE
  2
VIEW
  5
6
330
0
100
AcDbSymbolTable
 70
     0
  0
ENDTAB
  0
TABLE
  2
UCS
  5
7
330
0
100
AcDbSymbolTable
 70
     0
  0
ENDTAB
  0
TABLE
  2
APPID
  5
9
330
0
100
AcDbSymbolTable
 70
     2
  0
APPID
  5
12
330
9
100
AcDbSymbolTableRecord
100
AcDbRegAppTableRecord
  2
ACAD
 70
     0
  0
ENDTAB
  0
TABLE
  2
DIMSTYLE
  5
A
330
0
100
AcDbSymbolTable
 70
     1
  0
DIMSTYLE
105
27
330
A
100
AcDbSymbolTableRecord
100
AcDbDimStyleTableRecord
  2
ISO-25
 70
     0
  3

  4

  5

  6

  7

 40
1.0
 41
2.5
 42
0.625
 43
3.75
 44
1.25
 45
0.0
 46
0.0
 47
0.0
 48
0.0
140
2.5
141
2.5
142
0.0
143
0.03937007874016
144
1.0
145
0.0
146
1.0
147
0.625
 71
     0
 72
     0
 73
     0
 74
     0
 75
     0
 76
     0
 77
     1
 78
     8
170
     0
171
     3
172
     1
173
     0
174
     0
175
     0
176
     0
177
     0
178
     0
270
     2
271
     2
272
     2
273
     2
274
     3
340
11
275
     0
280
     0
281
     0
282
     0
283
     0
284
     8
285
     0
286
     0
287
     3
288
     0
  0
ENDTAB
  0
TABLE
  2
BLOCK_RECORD
  5
1
330
0
100
AcDbSymbolTable
 70
     1
  0
BLOCK_RECORD
  5
1F
330
1
100
AcDbSymbolTableRecord
100
AcDbBlockTableRecord
  2
*MODEL_SPACE
  0
BLOCK_RECORD
  5
1B
330
1
100
AcDbSymbolTableRecord
100
AcDbBlockTableRecord
  2
*PAPER_SPACE
  0
ENDTAB
  0
ENDSEC
  0
SECTION
  2
BLOCKS
  0
BLOCK
  5
20
330
1F
100
AcDbEntity
  8
0
100
AcDbBlockBegin
  2
*MODEL_SPACE
 70
     0
 10
0.0
 20
0.0
 30
0.0
  3
*MODEL_SPACE
  1

  0
ENDBLK
  5
21
330
1F
100
AcDbEntity
  8
0
100
AcDbBlockEnd
  0
BLOCK
  5
1C
330
1B
100
AcDbEntity
 67
     1
  8
0
100
AcDbBlockBegin
  2
*PAPER_SPACE
  1

  0
ENDBLK
  5
1D
330
1B
100
AcDbEntity
 67
     1
  8
0
100
AcDbBlockEnd
  0
ENDSEC
  0
SECTION
  2
ENTITIES
  0
LWPOLYLINE
  5
100
100
AcDbEntity
  8
Points_2
 62
7
100
AcDbPolyline
 90
4
 70
1
 10
820.812500
 20
1160.000000
 30
0.0
 10
810.406200
 20
1139.187500
 30
0.0
 10
800.000000
 20
1160.000000
 30
0.0
 10
820.812500
 20
1160.000000
 30
0.0
  0
LWPOLYLINE
  5
101
100
AcDbEntity
  8
Points_2
 62
7
100
AcDbPolyline
 90
4
 70
1
 10
861.312500
 20
1220.000000
 30
0.0
 10
850.906200
 20
1199.187500
 30
0.0
 10
840.500000
 20
1220.000000
 30
0.0
 10
861.312500
 20
1220.000000
 30
0.0
  0
LWPOLYLINE
  5
102
100
AcDbEntity
  8
Points_2
 62
7
100
AcDbPolyline
 90
4
 70
1
 10
830.812500
 20
1270.000000
 30
0.0
 10
820.406200
 20
1249.187500
 30
0.0
 10
810.000000
 20
1270.000000
 30
0.0
 10
830.812500
 20
1270.000000
 30
0.0
  0
LWPOLYLINE
  5
103
100
AcDbEntity
  8
Points_2
 62
7
100
AcDbPolyline
 90
4
 70
1
 10
900.000000
 20
1080.000000
 30
0.0
 10
889.593700
 20
1059.187500
 30
0.0
 10
879.187500
 20
1080.000000
 30
0.0
 10
900.000000
 20
1080.000000
 30
0.0
  0
LWPOLYLINE
  5
104
100
AcDbEntity
  8
Points_2
 62
7
100
AcDbPolyline
 90
4
 70
1
 10
840.000000
 20
280.000000
 30
0.0
 10
829.593700
 20
259.187500
 30
0.0
 10
819.187500
 20
280.000000
 30
0.0
 10
840.000000
 20
280.000000
 30
0.0
  0
LWPOLYLINE
  5
105
100
AcDbEntity
  8
Points_2
 62
7
100
AcDbPolyline
 90
4
 70
1
 10
1700.812500
 20
200.000000
 30
0.0
 10
1690.406200
 20
179.187500
 30
0.0
 10
1680.000000
 20
200.000000
 30
0.0
 10
1700.812500
 20
200.000000
 30
0.0
  0
LWPOLYLINE
  5
106
100
AcDbEntity
  8
Points_2
 62
7
100
AcDbPolyline
 90
4
 70
1
 10
1580.812500
 20
140.000000
 30
0.0
 10
1570.406200
 20
119.187500
 30
0.0
 10
1560.000000
 20
140.000000
 30
0.0
 10
1580.812500
 20
140.000000
 30
0.0
  0
LWPOLYLINE
  5
107
100
AcDbEntity
  8
Points_2
 62
7
100
AcDbPolyline
 90
4
 70
1
 10
810.406300
 20
320.812500
 30
0.0
 10
800.000000
 20
300.000000
 30
0.0
 10
789.593800
 20
320.812500
 30
0.0
 10
810.406300
 20
320.812500
 30
0.0
  0
LWPOLYLINE
  5
108
100
AcDbEntity
  8
Points_2
 62
7
100
AcDbPolyline
 90
4
 70
1
 10
790.812550
 20
430.000000
 30
0.0
 10
780.406250
 20
409.187500
 30
0.0
 10
770.000050
 20
430.000000
 30
0.0
 10
790.812550
 20
430.000000
 30
0.0
  0
LWPOLYLINE
  5
109
100
AcDbEntity
  8
Points_2
 62
7
100
AcDbPolyline
 90
4
 70
1
 10
480.812500
 20
580.000000
 30
0.0
 10
470.406200
 20
559.187500
 30
0.0
 10
460.000000
 20
580.000000
 30
0.0
 10
480.812500
 20
580.000000
 30
0.0
  0
LWPOLYLINE
  5
10a
100
AcDbEntity
  8
Points_2
 62
7
100
AcDbPolyline
 90
4
 70
1
 10
810.406300
 20
360.812500
 30
0.0
 10
800.000000
 20
340.000000
 30
0.0
 10
789.593800
 20
360.812500
 30
0.0
 10
810.406300
 20
360.812500
 30
0.0
  0
LWPOLYLINE
  5
10b
100
AcDbEntity
  8
Points_2
 62
7
100
AcDbPolyline
 90
4
 70
1
 10
750.406300
 20
340.812500
 30
0.0
 10
740.000000
 20
320.000000
 30
0.0
 10
729.593800
 20
340.812500
 30
0.0
 10
750.406300
 20
340.812500
 30
0.0
  0
LWPOLYLINE
  5
10c
100
AcDbEntity
  8
Points_2
 62
7
100
AcDbPolyline
 90
4
 70
1
 10
882.812500
 20
1208.000000
 30
0.0
 10
872.406200
 20
1187.187500
 30
0.0
 10
862.000000
 20
1208.000000
 30
0.0
 10
882.812500
 20
1208.000000
 30
0.0
  0
LWPOLYLINE
  5
10d
100
AcDbEntity
  8
Points_2
 62
7
100
AcDbPolyline
 90
4
 70
1
 10
1731.625000
 20
179.187500
 30
0.0
 10
1721.218700
 20
158.375000
 30
0.0
 10
1710.812500
 20
179.187500
 30
0.0
 10
1731.625000
 20
179.187500
 30
0.0
  0
LWPOLYLINE
  5
10e
100
AcDbEntity
  8
Points_2
 62
7
100
AcDbPolyline
 90
4
 70
1
 10
1611.218800
 20
290.000000
 30
0.0
 10
1600.812500
 20
269.187500
 30
0.0
 10
1590.406300
 20
290.000000
 30
0.0
 10
1611.218800
 20
290.000000
 30
0.0
  0
LWPOLYLINE
  5
10f
100
AcDbEntity
  8
Points_2
 62
7
100
AcDbPolyline
 90
4
 70
1
 10
530.406300
 20
1180.812500
 30
0.0
 10
520.000000
 20
1160.000000
 30
0.0
 10
509.593800
 20
1180.812500
 30
0.0
 10
530.406300
 20
1180.812500
 30
0.0
  0
LWPOLYLINE
  5
110
100
AcDbEntity
  8
Points_2
 62
7
100
AcDbPolyline
 90
4
 70
1
 10
420.000000
 20
620.000000
 30
0.0
 10
409.593700
 20
599.187500
 30
0.0
 10
399.187500
 20
620.000000
 30
0.0
 10
420.000000
 20
620.000000
 30
0.0
  0
LWPOLYLINE
  5
111
100
AcDbEntity
  8
Points_2
 62
7
100
AcDbPolyline
 90
4
 70
1
 10
490.406300
 20
1300.812500
 30
0.0
 10
480.000000
 20
1280.000000
 30
0.0
 10
469.593800
 20
1300.812500
 30
0.0
 10
490.406300
 20
1300.812500
 30
0.0
  0
LWPOLYLINE
  5
112
100
AcDbEntity
  8
Points_2
 62
7
100
AcDbPolyline
 90
4
 70
1
 10
550.406300
 20
340.812500
 30
0.0
 10
540.000000
 20
320.000000
 30
0.0
 10
529.593800
 20
340.812500
 30
0.0
 10
550.406300
 20
340.812500
 30
0.0
  0
LWPOLYLINE
  5
113
100
AcDbEntity
  8
Points_2
 62
7
100
AcDbPolyline
 90
4
 70
1
 10
390.406300
 20
350.812500
 30
0.0
 10
380.000000
 20
330.000000
 30
0.0
 10
369.593800
 20
350.812500
 30
0.0
 10
390.406300
 20
350.812500
 30
0.0
  0
LWPOLYLINE
  5
114
100
AcDbEntity
  8
Points_2
 62
7
100
AcDbPolyline
 90
4
 70
1
 10
550.000000
 20
80.000000
 30
0.0
 10
539.593700
 20
59.187500
 30
0.0
 10
529.187500
 20
80.000000
 30
0.0
 10
550.000000
 20
80.000000
 30
0.0
  0
LWPOLYLINE
  5
115
100
AcDbEntity
  8
Points_2
 62
7
100
AcDbPolyline
 90
4
 70
1
 10
1190.812500
 20
549.999950
 30
0.0
 10
1180.406200
 20
529.187450
 30
0.0
 10
1170.000000
 20
549.999950
 30
0.0
 10
1190.812500
 20
549.999950
 30
0.0
  0
LWPOLYLINE
  5
116
100
AcDbEntity
  8
Points_2
 62
7
100
AcDbPolyline
 90
4
 70
1
 10
1080.812500
 20
650.000000
 30
0.0
 10
1070.406200
 20
629.187500
 30
0.0
 10
1060.000000
 20
650.000000
 30
0.0
 10
1080.812500
 20
650.000000
 30
0.0
  0
LWPOLYLINE
  5
117
100
AcDbEntity
  8
Points_2
 62
7
100
AcDbPolyline
 90
4
 70
1
 10
840.406300
 20
890.812500
 30
0.0
 10
830.000000
 20
870.000000
 30
0.0
 10
819.593800
 20
890.812500
 30
0.0
 10
840.406300
 20
890.812500
 30
0.0
  0
LWPOLYLINE
  5
118
100
AcDbEntity
  8
Points_2
 62
7
100
AcDbPolyline
 90
4
 70
1
 10
870.000000
 20
790.000000
 30
0.0
 10
859.593700
 20
769.187500
 30
0.0
 10
849.187500
 20
790.000000
 30
0.0
 10
870.000000
 20
790.000000
 30
0.0
  0
LWPOLYLINE
  5
119
100
AcDbEntity
  8
Points_2
 62
7
100
AcDbPolyline
 90
4
 70
1
 10
930.812550
 20
850.000000
 30
0.0
 10
920.406250
 20
829.187500
 30
0.0
 10
910.000050
 20
850.000000
 30
0.0
 10
930.812550
 20
850.000000
 30
0.0
  0
LWPOLYLINE
  5
11a
100
AcDbEntity
  8
Points_2
 62
7
100
AcDbPolyline
 90
4
 70
1
 10
630.812550
 20
1320.000000
 30
0.0
 10
620.406250
 20
1299.187500
 30
0.0
 10
610.000050
 20
1320.000000
 30
0.0
 10
630.812550
 20
1320.000000
 30
0.0
  0
LWPOLYLINE
  5
11b
100
AcDbEntity
  8
Points_2
 62
7
100
AcDbPolyline
 90
4
 70
1
 10
1400.812500
 20
960.000000
 30
0.0
 10
1390.406200
 20
939.187500
 30
0.0
 10
1380.000000
 20
960.000000
 30
0.0
 10
1400.812500
 20
960.000000
 30
0.0
  0
LWPOLYLINE
  5
11c
100
AcDbEntity
  8
Points_2
 62
7
100
AcDbPolyline
 90
4
 70
1
 10
1420.812500
 20
650.000000
 30
0.0
 10
1410.406200
 20
629.187500
 30
0.0
 10
1400.000000
 20
650.000000
 30
0.0
 10
1420.812500
 20
650.000000
 30
0.0
  0
LWPOLYLINE
  5
11d
100
AcDbEntity
  8
Points_2
 62
7
100
AcDbPolyline
 90
4
 70
1
 10
900.812550
 20
1350.000000
 30
0.0
 10
890.406250
 20
1329.187500
 30
0.0
 10
880.000050
 20
1350.000000
 30
0.0
 10
900.812550
 20
1350.000000
 30
0.0
  0
LWPOLYLINE
  5
11e
100
AcDbEntity
  8
Points_2
 62
7
100
AcDbPolyline
 90
4
 70
1
 10
1120.812500
 20
590.000000
 30
0.0
 10
1110.406200
 20
569.187500
 30
0.0
 10
1100.000000
 20
590.000000
 30
0.0
 10
1120.812500
 20
590.000000
 30
0.0
  0
ENDSEC
  0
SECTION
  2
OBJECTS
  0
DICTIONARY
  5
C
330
0
100
AcDbDictionary
  3
ACAD_GROUP
350
D
  3
ACAD_MLINESTYLE
350
17
  0
DICTIONARY
  5
D
330
C
100
AcDbDictionary
  0
DICTIONARY
  5
1A
330
C
100
AcDbDictionary
  0
DICTIONARY
  5
17
330
C
100
AcDbDictionary
  3
STANDARD
350
18
  0
DICTIONARY
  5
19
330
C
100
AcDbDictionary
  0
ENDSEC
  0
EOF
